<?xml version="1.0" standalone="no"?>
<!DOCTYPE svg PUBLIC "-//W3C//DTD SVG 20010904//EN"
 "http://www.w3.org/TR/2001/REC-SVG-20010904/DTD/svg10.dtd">
<svg version="1.0" xmlns="http://www.w3.org/2000/svg"
 width="500.000000pt" height="500.000000pt" viewBox="0 0 500.000000 500.000000"
 preserveAspectRatio="xMidYMid meet">
<metadata>
Created by potrace 1.14, written by Peter Selinger 2001-2017
</metadata>
<g transform="translate(0.000000,500.000000) scale(0.100000,-0.100000)"
fill="#000000" stroke="none">
<path d="M2410 4045 c-25 -20 -94 -66 -155 -104 -292 -183 -596 -281 -915
-296 -121 -5 -112 43 -107 -569 2 -287 7 -539 11 -561 47 -255 132 -497 234
-660 l29 -47 -163 -163 c-171 -170 -184 -190 -177 -268 8 -96 86 -167 183
-167 77 0 97 15 314 228 l74 73 58 -58 c33 -32 79 -74 104 -93 25 -19 75 -60
112 -92 37 -31 118 -92 180 -135 62 -43 131 -91 153 -106 22 -16 52 -36 67
-45 16 -9 28 -20 28 -23 0 -3 -164 -5 -365 -5 -229 1 -370 -3 -378 -9 -21 -16
-27 -42 -12 -61 12 -17 50 -18 711 -19 457 0 705 4 718 10 12 6 22 20 24 31 7
45 -11 48 -319 48 -159 0 -288 3 -287 8 2 4 62 48 133 97 288 200 440 328 590
496 33 38 65 73 70 79 92 98 240 356 296 516 24 68 78 270 85 319 3 20 9 60
14 90 6 30 10 276 10 547 0 583 11 535 -121 541 -241 9 -509 82 -754 206 -65
32 -201 117 -250 154 -16 13 -34 27 -40 31 -68 53 -94 54 -155 7z m-40 -382
c22 -10 40 -21 40 -26 0 -21 -267 -153 -400 -197 -126 -41 -342 -96 -409 -104
-29 -4 -58 -9 -63 -12 -10 -7 -5 -745 6 -804 4 -19 11 -60 17 -90 13 -74 29
-139 41 -173 8 -20 7 -31 -3 -44 -12 -14 -12 -15 -1 -9 11 7 12 4 4 -10 -5
-11 -8 -29 -6 -41 2 -13 0 -23 -6 -23 -9 0 -64 166 -95 286 -33 132 -43 265
-44 632 l-2 362 23 1 c13 0 32 2 43 4 11 2 40 7 65 10 92 11 127 18 220 42
127 34 261 85 400 155 63 31 118 57 122 57 5 1 26 -7 48 -16z"/>
<path d="M3266 947 c-31 -10 -35 -46 -8 -69 21 -17 105 -16 127 2 23 19 19 57
-7 66 -33 11 -82 11 -112 1z"/>
</g>
</svg>
